<?xml version="1.0" encoding="UTF-8"?>
<svg width="200px" height="200px" viewBox="0 0 200 200" version="1.1" xmlns="http://www.w3.org/2000/svg" xmlns:xlink="http://www.w3.org/1999/xlink">
    <!-- Generator: Sketch 54.1 (76490) - https://sketchapp.com -->
    <title>colby</title>
    <desc>Created with Sketch.</desc>
    <g id="colby" stroke="none" stroke-width="1" fill="none" fill-rule="evenodd">
        <g id="colby_BGD">
            <g id="colby" transform="translate(0.000000, 40.000000)">
                <g id="g10" transform="translate(99.715097, 59.886044) scale(-1, 1) rotate(-180.000000) translate(-99.715097, -59.886044) translate(0.000000, 0.056986)" fill-rule="nonzero">
                    <g id="g12">
                        <path d="M99.498573,110.142447 C44.5470074,110.142447 0,87.8632457 0,60.3646709 C0,32.8774921 44.5470074,10.5868943 99.498573,10.5868943 C154.450139,10.5868943 198.997146,32.8774921 198.997146,60.3646709 C198.997146,87.8632457 154.450139,110.142447 99.498573,110.142447 Z M99.441593,13.356125 C53.4472921,13.356125 16.1709398,34.4045575 16.1709398,60.3646709 C16.1709398,86.3247842 53.4586881,107.373217 99.441593,107.373217 C145.435894,107.373217 182.723642,86.3247842 182.723642,60.3646709 C182.723642,34.4045575 145.44729,13.356125 99.441593,13.356125 Z" id="Shape" fill="#FFFFFF"></path>
                        <path d="M82.7578327,116.330481 C82.7578327,116.330481 82.6324766,116.945866 82.9857529,117.264954 C82.9857529,117.264954 83.4757814,117.561251 84.068374,116.729342 C84.068374,116.729342 93.4586871,108.091165 104.672362,103.179485 C104.672362,103.179485 105.162391,103.008544 105.925923,102.73504 C98.8603964,106.153843 91.0085447,110.90598 88.0341858,113.982903 C83.8062657,118.347575 82.7350407,117.515667 82.7350407,117.515667 C81.7549837,113.868943 85.9145278,106.119655 89.219371,100.752134 C89.276351,100.752134 89.3219351,100.76353 89.3789151,100.76353 C86.6324765,105.321935 83.3618213,111.555553 82.7578327,116.330481" id="path18" fill="#FFFFFF"></path>
                        <path d="M114.017091,99.4005673 C113.868943,99.4539006 113.709399,99.5205673 113.561251,99.587234 C113.811963,99.4405673 114.051279,99.2805673 114.290595,99.1339007 L114.017091,99.4005673" id="path20" fill="#FFFFFF"></path>
                        <path d="M168.182332,10.267806 C168.182332,9.88034163 168.193728,9.29914507 168.205124,8.80911659 C167.863244,9.37891714 167.384611,10.3133901 167.008543,11.4871792 C167.464383,11.0541308 167.87464,10.6210824 168.182332,10.267806 M186.370366,24.7065521 C186.336178,24.8660962 185.948713,26.8034181 186.267802,29.4358967 L186.41595,30.6096858 L185.242161,30.735042 C184.5584,30.803418 182.655266,31.1680904 181.629625,31.9772072 C181.173785,33.1509963 179.293443,37.937321 176.44444,43.7492867 C172.15954,52.4786312 167.806264,59.3504259 163.475779,64.1937306 C163.487175,65.675212 163.339027,68.752135 162.35897,72.7179469 L162.176634,73.4586876 L161.424497,73.5840437 C161.390309,73.5840437 157.971506,74.1766363 155.9886,76.7179468 C155.452988,77.5840436 150.313387,85.6410235 140.991449,88.159542 C140.398857,90.9629607 137.33333,100.239314 122.256407,109.037034 L122.245011,109.04843 L122.233615,109.059826 C122.153843,109.10541 113.994299,113.629627 107.794869,118.256407 C107.544157,118.484328 106.985752,118.894584 106.324784,118.894584 C106.119655,118.894584 105.925923,118.860396 105.743587,118.780624 L105.561251,118.712248 L105.413103,118.586892 C105.094014,118.301991 104.752134,117.732191 104.99145,116.603986 C106.313388,108.980054 109.538459,104.216522 112.148145,101.504271 C109.960111,102.495724 107.680909,103.361821 106.324784,103.851849 C105.675211,104.091165 105.230767,104.239314 105.094014,104.296294 C94.7236444,108.843302 85.8347557,116.740738 84.9230748,117.561251 C84.3076902,118.347575 83.6581176,118.518516 83.2022771,118.518516 C82.8034167,118.518516 82.5185165,118.381763 82.3817643,118.301991 L82.2905962,118.245011 L82.2108242,118.165239 C81.5954396,117.618231 81.5042715,116.76353 81.6068356,116.182333 C82.1766361,111.737889 84.9002828,106.176636 87.4301972,101.823359 C86.3589722,101.743587 85.2991432,101.629627 84.2393141,101.515667 L81.8917358,101.242163 L82.05128,101.071223 C82.028488,101.082619 82.005696,101.094015 81.9715079,101.094015 L81.7093997,101.185183 L81.4358954,101.139599 C79.999998,100.923074 78.5071205,100.660966 77.0142431,100.36467 L74.7122488,99.9088294 L75.5213656,99.2022767 C75.0427332,99.3504249 74.5527047,99.498573 74.0626762,99.6125331 L73.800568,99.6695132 L73.5384597,99.6125331 C70.1766364,98.8148123 66.712249,97.8347554 63.2478617,96.6723623 L61.3675198,96.0455816 L61.7777762,95.6809093 C61.561252,95.7264933 61.3447278,95.7606814 61.1168076,95.7948694 L60.7749273,95.8404534 L60.467235,95.7037013 C45.6068365,89.0826189 43.9999989,88.4444422 43.9316228,88.4216502 L43.8746428,88.3988582 L43.8176627,88.3760662 C40.8888879,86.8717927 19.7264952,81.2421632 11.8176635,79.2022772 L8.56980036,78.3589724 L11.6467234,77.0142431 C28.0911674,69.8233601 35.7378908,58.5754971 39.2592583,50.4159532 C43.088318,41.5384605 43.0085459,34.2678054 43.0085459,34.1880333 L42.9971499,33.4472926 L43.6581186,33.1282043 C50.6096853,29.720797 55.7948704,24.615384 59.0655256,17.9487175 C61.515668,12.9458686 61.9145284,8.90028468 61.9145284,8.85470063 L62.1994286,5.70940157 L64.0113944,8.29629609 C84.3190862,37.2991444 105.378915,39.5441586 111.350425,39.5441586 C111.772077,39.5441586 112.102561,39.5327625 112.341878,39.5213665 C112.752134,39.0655261 113.549855,38.2792013 114.746436,37.3675204 L114.780624,37.3333324 L114.826208,37.3105404 C118.176635,35.2136743 123.772077,31.5897428 124.547005,30.757834 L124.76353,30.5299138 L125.071222,30.4387457 C125.44729,30.3361816 127.042732,30.1424494 129.458686,29.9145292 C130.564099,29.1851845 135.293444,26.0284894 139.806264,22.552706 C145.378914,18.2564098 147.521364,15.8746435 148.341877,14.6324783 C149.162389,13.1623928 150.267803,10.6666664 150.233614,9.6410254 L150.233614,9.59544136 L150.233614,9.54985731 C150.24501,9.34472911 150.450139,4.44444433 155.076919,1.4358974 L155.247859,1.32193729 L155.452988,1.27635324 C155.498572,1.26495723 156.547005,1.025641 157.73219,1.025641 C157.914526,1.025641 158.085466,1.03703701 158.24501,1.03703701 C158.769227,0.569800556 159.715096,0.0227920222 161.219369,0.0227920222 C161.56125,0.0227920222 161.925922,0.0569800556 162.290594,0.113960111 C162.871791,0.193732189 167.601135,0.980056956 169.219369,3.8974358 L169.230765,3.92022782 L169.242161,3.94301984 C169.492873,4.44444433 169.709397,5.29914517 169.549853,6.24501409 C170.427346,5.2307691 171.122503,4.63817652 171.635323,4.46723636 L171.829056,4.39886029 L172.034184,4.39886029 C172.250708,4.39886029 177.527061,4.55840444 180.193728,6.6666665 L180.376064,6.81481464 L180.490024,7.01994284 C180.683756,7.37321919 181.481477,8.85470063 181.925921,9.98290573 C183.076918,10.222222 184.307688,11.0085467 184.752132,12.6495723 L184.763528,12.6951564 L184.774924,12.7407404 C184.809112,12.9344726 185.082616,14.404558 184.90028,15.8062674 C185.903129,16.8547004 187.658115,19.5897431 186.370366,24.7065521" id="path22" fill="#FFFFFF"></path>
                        <path d="M16.7521363,78.0284881 C34.5413097,80.4330464 48.0683749,85.2535591 48.0683749,85.2535591 C74.1538443,93.6410233 89.9373197,93.367519 94.7008523,93.0142427 C104.490026,81.059827 113.982903,81.1395991 113.982903,81.1395991 C94.6780603,87.6353254 84.068374,114.461536 84.068374,114.461536 C83.8404537,115.316236 84.13675,115.293444 84.13675,115.293444 C84.3646703,115.30484 84.6267785,114.985752 84.6267785,114.985752 C91.1566929,107.509969 109.960111,98.8603964 109.960111,98.8603964 C123.578344,92.7521344 129.139598,81.4472914 129.139598,81.4472914 C128.957262,83.5783455 126.176635,88.8546986 126.176635,88.8546986 C137.663814,85.2421631 142.484327,79.8746419 142.484327,79.8746419 C141.56125,82.4729324 137.663814,86.2678041 137.663814,86.2678041 C137.663814,86.2678041 149.50427,83.7492857 153.595438,76.3304824 C153.595438,76.3304824 155.669512,72.2165224 160.44444,70.9401692 C160.44444,70.9401692 160.934469,66.6096849 160.763529,65.3675197 C159.726492,66.3817647 158.666663,67.2934456 157.584042,68.0797704 C171.669511,51.4074061 179.384611,30.1310534 179.384611,30.1310534 C179.384611,30.1310534 179.874639,28.9116802 183.726491,28.0455833 C183.726491,28.0455833 184.034183,25.7207971 184.2735,25.1054125 C184.2735,25.1054125 185.868941,20.0227915 182.87179,16.9686605 C182.87179,16.9686605 184.034183,13.1168088 181.401705,12.1367518 C181.401705,12.1367518 176.569796,11.6467234 173.868942,10.245014 C173.868942,10.245014 178.70085,10.9743587 179.680907,10.9743587 C179.680907,10.9743587 179.065523,9.19658097 178.518514,8.46723626 C178.518514,8.46723626 176.50142,7.23646706 172.21652,7.179487 L170.313386,8.64957243 C170.313386,8.64957243 170.18803,10.301994 170.18803,10.8490026 C170.18803,10.8490026 168.170936,14.6438743 161.743586,18.0056976 C161.743586,18.0056976 156.603985,17.8233614 154.894583,16.0455836 C154.894583,16.0455836 154.279198,14.6438743 155.202275,12.7407404 C155.202275,12.7407404 156.980053,7.85185166 160.649569,5.82336168 C160.649569,5.82336168 163.099711,4.60398849 165.173785,7.29344711 C165.173785,7.29344711 162.233614,5.09401697 159.601136,7.53276334 C159.601136,7.53276334 157.014241,10.0740738 156.421649,12.5470082 C156.068372,14.0284897 157.014241,14.1766378 157.014241,14.1766378 C159.452987,14.8945865 161.458685,12.262108 161.458685,12.262108 C161.504269,12.7407404 160.980053,14.31339 160.980053,14.31339 C160.934469,15.8404554 164.034184,14.0284897 164.034184,14.0284897 C163.9886,11.4529912 166.712247,7.47578329 166.712247,7.47578329 C168.148144,5.70940157 167.521363,4.90028478 167.521363,4.90028478 C165.470081,1.83475779 161.641022,2.80341873 161.641022,2.80341873 C156.193728,3.61253552 153.276349,10.5982903 153.276349,10.5982903 C150.07407,18.1538457 154.495723,19.9544155 154.495723,19.9544155 C152.547005,25.5498569 141.686606,33.846153 141.686606,33.846153 C142.575495,35.3162384 141.90313,35.6125347 141.90313,35.6125347 C140.273501,37.0598281 139.680908,38.2905973 139.680908,38.2905973 C141.242162,40.5925916 143.076919,40.0911671 143.076919,40.0911671 C144.091164,39.7834748 144.638173,40.3646714 144.638173,40.3646714 C145.61823,41.2649562 144.398857,43.2478622 144.398857,43.2478622 C140.968657,49.1737879 135.122504,53.2649559 135.122504,53.2649559 C143.93162,43.9886029 142.279199,41.5726485 142.279199,41.5726485 C141.344726,40.2962953 139.544156,40.5128195 139.544156,40.5128195 C136.501421,40.3532753 134.005695,36.5584036 134.005695,36.5584036 C131.498572,32.5242157 128.307689,33.6752128 128.307689,33.6752128 C135.749284,41.6524206 130.894584,47.9544148 130.894584,47.9544148 C125.196578,55.8518505 116.136749,60.2165227 116.136749,60.2165227 C108.227918,65.0028474 113.356123,76.1481462 113.356123,76.1481462 C111.623929,76.877491 110.50712,74.3019924 110.50712,74.3019924 C91.7948695,80.7863228 69.9259242,69.6752119 69.9259242,69.6752119 C88.2735021,74.1196563 93.4586871,65.9715083 93.4586871,65.9715083 C67.8860382,65.0484314 52.5128192,57.1282037 52.5128192,57.1282037 C44.9116798,54.1652408 42.1310531,59.2934458 42.1310531,59.2934458 C33.800569,72.2848985 16.7521363,78.0284881 16.7521363,78.0284881 M44.1709391,34.1082613 C61.5954401,25.5840449 63.0769215,8.91168069 63.0769215,8.91168069 C87.3504252,43.5555545 112.923074,40.5925916 112.923074,40.5925916 C112.923074,40.5925916 113.698003,39.5669506 115.464385,38.2450133 C115.464385,38.2450133 124.250709,32.7521359 125.424498,31.5099707 C125.424498,31.5099707 125.937319,31.3618226 129.891735,30.9971502 C129.891735,30.9971502 145.925922,20.524216 149.367518,15.1794868 C149.367518,15.1794868 151.487176,11.3732191 151.4188,9.5384613 C151.4188,9.5384613 151.566948,5.07122494 155.737888,2.3589743 C155.737888,2.3589743 157.356121,1.99430194 158.735039,2.21082616 C158.735039,2.21082616 159.578344,0.809116789 162.142446,1.21937319 C162.142446,1.21937319 166.837603,1.90313386 168.239312,4.42165231 C168.239312,4.42165231 169.037033,6.01709387 167.692304,7.4871793 C167.692304,7.4871793 165.435893,10.4843302 165.310537,14.5868942 C165.310537,14.5868942 168.364668,12.0113957 169.344725,10.6666664 C169.344725,10.6666664 169.344725,8.83190861 169.401705,8.28490008 C169.401705,8.28490008 171.293443,5.77777763 172.034184,5.52706539 C172.034184,5.52706539 177.116805,5.65242151 179.498571,7.54415936 C179.498571,7.54415936 180.911676,10.1082619 181.094013,11.0313388 C181.094013,11.0313388 183.111107,10.9059826 183.669511,12.9344726 C183.669511,12.9344726 184.034183,14.8262105 183.669511,16.1709398 C183.669511,16.1709398 186.792018,18.3703699 185.264953,24.4330478 C185.264953,24.4330478 184.774924,26.5754979 185.139597,29.5726488 C185.139597,29.5726488 182.142446,29.8803411 180.67236,31.2820505 C180.67236,31.2820505 172.854697,52.2051269 162.336178,63.7264941 C162.370366,64.8433032 162.336178,68.0683744 161.264953,72.4102546 C161.264953,72.4102546 157.356121,73.0370352 155.054127,76.0227901 C155.054127,76.0227901 149.766378,84.9230748 139.999996,87.190881 C139.999996,87.190881 139.042732,97.8917354 121.698003,108.011393 C121.698003,108.011393 113.424499,112.581194 107.088316,117.321934 C107.088316,117.321934 106.5641,117.811963 106.210824,117.675211 C106.210824,117.675211 106.017091,117.504271 106.16524,116.786322 C108.410254,103.737889 116.490026,99.441593 116.490026,99.441593 C128.079769,96.5242141 132.034185,90.6894564 132.034185,90.6894564 C125.515666,95.3048409 116.512818,97.6638152 116.512818,97.6638152 C113.732191,100.091166 104.70655,103.179485 104.70655,103.179485 C93.4814791,108.091165 84.091166,116.740738 84.091166,116.740738 C83.4985734,117.561251 83.0085449,117.27635 83.0085449,117.27635 C82.6438726,116.957262 82.7806247,116.330481 82.7806247,116.330481 C83.3732173,111.555553 86.6438725,105.321935 89.4131032,100.76353 C87.7264935,100.672362 86.0626759,100.524214 84.3988583,100.330482 C85.150995,99.5669491 86.3361802,98.2791998 86.6210805,97.458687 C86.6210805,97.458687 84.5470064,99.0085445 81.6410236,99.9544135 C80.1709382,99.7264932 78.7122487,99.475781 77.2763513,99.1908807 C78.0398841,98.5185161 79.3048413,97.2877469 79.999998,95.9202255 C79.999998,95.9202255 77.0370351,97.6752112 73.82336,98.438744 C70.2222205,97.5840431 66.7920211,96.5811942 63.635326,95.5327611 C64.3304827,94.8945845 65.4358958,93.8575475 65.9145283,93.1168068 C65.9145283,93.1168068 63.8404542,94.1538438 60.9458674,94.5982882 C45.6752125,87.7948696 44.3646713,87.2934451 44.3646713,87.2934451 C40.6837597,85.4017073 12.1253558,78.0284881 12.1253558,78.0284881 C44.7293436,63.7606822 44.1709391,34.1082613 44.1709391,34.1082613" id="path24" fill="#254893"></path>
                        <path d="M174.13105,18.9629625 L172.957261,19.5783471 C172.957261,19.5783471 173.948714,21.504273 172.205124,22.6438741 C172.205124,22.6438741 168.38746,24.6723641 168.148144,26.9743583 C168.148144,26.9743583 168.626776,25.5156689 172.626776,23.7264951 C172.626776,23.7264951 177.378913,21.6980052 174.13105,18.9629625" id="path26" fill="#254893"></path>
                        <path d="M172.866093,17.7891733 C172.866093,17.7891733 170.085466,15.8176634 166.928771,20.3760679 C166.928771,20.3760679 164.433044,21.4131049 165.652418,23.1111105 C165.652418,23.1111105 162.541306,24.4786319 165.743586,26.9743583 C165.743586,26.9743583 164.900281,25.1851846 166.871791,23.6809111 C166.871791,23.6809111 166.541306,21.3219368 168.524212,19.532763 C168.524212,19.532763 170.41595,17.3105409 172.866093,17.7891733" id="path28" fill="#254893"></path>
                        <path d="M147.920224,57.5156681 C147.920224,57.5156681 150.324783,52.4330471 154.313386,48.5811954 C154.313386,48.5811954 161.116805,42.7350417 162.632475,35.863247 C162.632475,35.863247 159.190879,42.5982895 153.207973,47.4757823 C153.207973,47.4757823 149.709398,50.5071212 147.920224,57.5156681" id="path30" fill="#254893"></path>
                        <path d="M143.7037,58.1196567 C143.7037,58.1196567 142.792019,61.0370355 142.905979,63.612534 L141.743586,64.8433032 C141.743586,64.8433032 139.623928,66.0854684 130.940168,66.5868929 C130.940168,66.5868929 132.227917,66.3589727 132.284897,64.8888873 C132.284897,64.8888873 132.398857,62.7122491 135.737888,61.8347563 C135.737888,61.8347563 139.908828,60.6381751 140.843301,63.8974343 L141.150994,63.7264941 C141.150994,63.7264941 141.606834,61.3789158 140.182333,60.8205113 L140.091165,60.5697991 L142.005694,60.2507107 C142.005694,60.2621068 142.245011,58.3019928 143.7037,58.1196567" id="path32" fill="#254893"></path>
                        <path d="M101.652419,51.4643862 C101.652419,51.4643862 104.99145,50.8945856 106.267804,48.159543 C106.301992,48.0797709 106.33618,47.9886028 106.370368,47.8974347 C106.370368,47.8860387 106.370368,47.8860387 106.381764,47.8746427 L106.381764,47.8746427 C108.660966,42.1310531 111.418801,42.1196571 111.418801,42.1196571 C103.532761,52.4558391 110.039883,70.9287732 110.039883,70.9287732 C106.039883,65.8461522 105.230767,58.5754971 105.230767,58.5754971 C70.769229,60.6039871 57.0598276,40.045583 57.0598276,40.045583 C77.8119639,52.4900272 94.5185162,52.341879 101.652419,51.4643862" id="path34" fill="#FFFFFF"></path>
                    </g>
                </g>
            </g>
        </g>
    </g>
</svg>